<svg width="167" height="30" viewBox="0 0 167 30" fill="none" xmlns="http://www.w3.org/2000/svg">
<path d="M0.709664 28.5929C0.484846 28.7533 0.432583 29.0655 0.592931 29.2903C0.75328 29.5152 1.06552 29.5674 1.29034 29.4071L0.709664 28.5929ZM167 29L164.558 23.7684L161.248 28.4992L167 29ZM1.29034 29.4071C2.1531 28.7917 3.01933 28.1857 3.88895 27.5891L3.32324 26.7645C2.44857 27.3646 1.57735 27.9741 0.709664 28.5929L1.29034 29.4071ZM9.18428 24.0997C10.9787 22.9653 12.7868 21.8704 14.6079 20.8159L14.1068 19.9505C12.2743 21.0116 10.4552 22.1132 8.64991 23.2545L9.18428 24.0997ZM20.156 17.7498C22.0326 16.7618 23.9222 15.8161 25.8244 14.9135L25.3957 14.0101C23.4809 14.9187 21.5789 15.8705 19.6901 16.865L20.156 17.7498ZM31.6077 12.3191C33.5588 11.4939 35.5221 10.7136 37.4973 9.97913L37.1487 9.04184C35.1596 9.78151 33.1826 10.5672 31.2182 11.3981L31.6077 12.3191ZM43.4846 7.90504C45.4986 7.2582 47.5242 6.65861 49.5606 6.10708L49.2992 5.14186C47.2477 5.69745 45.2074 6.30142 43.1788 6.95294L43.4846 7.90504ZM55.7133 4.59503C57.7755 4.13964 59.8481 3.7333 61.9306 3.37681L61.7619 2.39115C59.6635 2.75034 57.5753 3.15976 55.4977 3.61856L55.7133 4.59503ZM68.1988 2.45876C70.2913 2.20378 72.3932 1.99899 74.5039 1.8452L74.4312 0.84784C72.3043 1.00281 70.1863 1.20917 68.0778 1.46611L68.1988 2.45876ZM80.8319 1.53832C81.8859 1.5128 82.9419 1.5 84 1.5V0.5C82.9339 0.5 81.8698 0.512902 80.8077 0.538608L80.8319 1.53832ZM84 1.5C85.058 1.5 86.1141 1.5128 87.1681 1.53832L87.1923 0.538608C86.1302 0.512902 85.0661 0.5 84 0.5V1.5ZM93.4961 1.8452C95.6068 1.99899 97.7087 2.20378 99.8012 2.45876L99.9222 1.46611C97.8137 1.20917 95.6957 1.00281 93.5688 0.84784L93.4961 1.8452ZM106.069 3.37681C108.152 3.7333 110.225 4.13964 112.287 4.59503L112.502 3.61856C110.425 3.15975 108.336 2.75034 106.238 2.39115L106.069 3.37681ZM118.439 6.10708C120.476 6.65861 122.501 7.25819 124.515 7.90504L124.821 6.95294C122.793 6.30142 120.752 5.69745 118.701 5.14185L118.439 6.10708ZM130.503 9.97913C132.478 10.7136 134.441 11.4939 136.392 12.3191L136.782 11.3981C134.817 10.5672 132.84 9.78151 130.851 9.04184L130.503 9.97913ZM142.176 14.9135C144.078 15.8161 145.967 16.7618 147.844 17.7498L148.31 16.865C146.421 15.8705 144.519 14.9187 142.604 14.0101L142.176 14.9135ZM153.392 20.8159C155.213 21.8704 157.021 22.9653 158.816 24.0997L159.35 23.2545C157.545 22.1132 155.726 21.0116 153.893 19.9505L153.392 20.8159ZM0.419327 28.1859C-0.0303082 28.5066 -0.134834 29.131 0.185863 29.5807C0.50656 30.0303 1.13104 30.1348 1.58067 29.8141L0.419327 28.1859ZM167 29L162.116 18.5369L155.497 27.9984L167 29ZM1.58067 29.8141C2.44098 29.2005 3.30471 28.5963 4.17181 28.0014L3.04039 26.3522C2.16318 26.954 1.28948 27.5652 0.419327 28.1859L1.58067 29.8141ZM9.45146 24.5224C11.2405 23.3913 13.043 22.2998 14.8585 21.2486L13.8562 19.5178C12.0181 20.5822 10.1934 21.6871 8.38272 22.8319L9.45146 24.5224ZM20.389 18.1922C22.2595 17.2074 24.1429 16.2648 26.0387 15.3653L25.1813 13.5584C23.2602 14.4699 21.352 15.4249 19.4572 16.4225L20.389 18.1922ZM31.8025 12.7796C33.7468 11.9572 35.7033 11.1797 37.6715 10.4478L36.9744 8.5732C34.9784 9.31546 32.9945 10.1038 31.0234 10.9376L31.8025 12.7796ZM43.6374 8.38109C45.6442 7.73659 47.6624 7.13919 49.6913 6.5897L49.1685 4.65924C47.1095 5.21687 45.0618 5.82303 43.0259 6.47689L43.6374 8.38109ZM55.8212 5.08327C57.8756 4.62959 59.9403 4.22478 62.015 3.86964L61.6775 1.89832C59.5713 2.25887 57.4752 2.66981 55.3899 3.13032L55.8212 5.08327ZM68.2593 2.95509C70.3438 2.70108 72.4376 2.49708 74.5402 2.34387L74.3949 0.349162C72.2599 0.504726 70.1339 0.711867 68.0173 0.969778L68.2593 2.95509ZM80.844 2.03817C81.894 2.01276 82.946 2 84 2V0C82.9298 0 81.8617 0.0129506 80.7956 0.0387544L80.844 2.03817ZM84 2C85.054 2 86.106 2.01276 87.156 2.03817L87.2044 0.0387542C86.1383 0.0129505 85.0702 0 84 0V2ZM93.4598 2.34387C95.5624 2.49708 97.6562 2.70108 99.7407 2.95509L99.9827 0.969777C97.8661 0.711866 95.7401 0.504725 93.6051 0.349162L93.4598 2.34387ZM105.985 3.86964C108.06 4.22478 110.124 4.62959 112.179 5.08327L112.61 3.13032C110.525 2.66981 108.429 2.25886 106.322 1.89832L105.985 3.86964ZM118.309 6.5897C120.338 7.13919 122.356 7.73658 124.363 8.38109L124.974 6.47689C122.938 5.82303 120.89 5.21687 118.831 4.65924L118.309 6.5897ZM130.328 10.4478C132.297 11.1797 134.253 11.9572 136.197 12.7796L136.977 10.9376C135.005 10.1038 133.022 9.31545 131.026 8.57319L130.328 10.4478ZM141.961 15.3653C143.857 16.2648 145.74 17.2074 147.611 18.1922L148.543 16.4225C146.648 15.4249 144.74 14.4699 142.819 13.5584L141.961 15.3653ZM153.142 21.2486C154.957 22.2998 156.759 23.3913 158.549 24.5224L159.617 22.8319C157.807 21.6871 155.982 20.5822 154.144 19.5178L153.142 21.2486Z" fill="white"/>
</svg>
