<svg width="237" height="129" viewBox="0 0 237 129" fill="white" xmlns="http://www.w3.org/2000/svg">
    <g clip-path="url(#clip0_4_25316)">
        <path d="M114.063 5.91323C110.644 7.9387 107.571 9.75643 104.494 11.5828C103.408 12.2277 101.997 12.9678 103.131 14.37C103.564 14.8807 105.295 14.8418 106.113 14.4046C111.631 11.3751 117.015 8.06854 122.516 4.98272C124.451 3.84859 126.716 3.41047 128.934 3.74113C131.153 4.07178 133.192 5.1513 134.712 6.80045C136.217 8.35632 137.15 10.376 137.36 12.5302C137.57 14.6845 137.044 16.8463 135.867 18.6633C134.954 20.0097 133.765 21.147 132.379 22.0002C127.506 24.9605 122.524 27.7217 117.647 30.6171C116.569 31.2576 115.782 31.3355 114.7 30.6171C112.635 29.2884 110.463 28.1285 107.996 26.7219C111.679 24.558 115.011 22.6234 118.357 20.6628C121.451 18.8624 124.611 17.1659 127.618 15.2226C128.294 14.7898 128.973 13.327 128.726 12.6994C128.22 11.401 126.995 11.8338 125.969 12.4354C121.196 15.2443 116.249 17.7674 111.653 20.823C103.901 25.9905 96.6261 22.7013 94.2155 13.6775C93.6816 11.8087 93.4407 9.86837 93.5013 7.92572C93.8562 1.62857 99.8115 -1.79915 105.464 1.00102C108.312 2.44222 111.012 4.16474 114.063 5.91323Z" />
        <path d="M114.544 44.1677C108.169 40.4803 102.192 36.9877 96.1758 33.5946C94.9597 32.9064 93.3929 31.0584 92.1811 33.0363C90.8481 35.2002 93.3453 35.6893 94.5918 36.4337C99.3958 39.3204 104.291 42.06 109.125 44.8991C114.621 48.1278 116.296 53.7671 112.782 59.0169C110.928 61.7805 108.507 64.1175 105.68 65.8723C100.43 69.049 94.3797 65.9589 93.6223 59.8911C93.1895 56.5456 93.5444 53.1049 93.5444 49.3006C96.7168 51.0924 99.6035 52.7284 102.495 54.3513C103.105 54.6932 103.715 55.2169 104.351 55.2689C104.987 55.3208 106.039 55.0481 106.286 54.5851C106.533 54.122 106.286 53.0227 105.853 52.5812C105.169 51.8801 104.17 51.4906 103.295 50.9842C98.5345 48.21 93.7046 45.4791 88.9438 42.6659C83.6724 39.5585 82.0235 33.7807 84.9059 28.8512C87.7883 23.9216 93.6137 22.6189 98.9067 25.6701C103.564 28.3534 108.19 31.0887 112.882 33.7028C114.137 34.4039 114.647 35.2132 114.574 36.6501C114.461 38.9742 114.544 41.3199 114.544 44.1677Z" />
        <path d="M140.85 45.4925C140.85 41.1646 140.85 37.6243 140.85 34.0624C140.85 32.8766 140.889 31.4657 139.261 31.4657C137.53 31.4657 137.53 32.9328 137.53 34.2096C137.53 40.2139 137.547 46.2167 137.582 52.2181C137.582 58.5023 133.514 62.9644 127.753 62.9471C121.993 62.9297 117.86 58.5456 117.842 52.2701C117.842 46.9683 117.894 41.6666 117.773 36.3649C117.739 34.8068 118.249 33.9672 119.595 33.2834C121.66 32.2317 123.629 30.9896 125.918 29.6653C125.992 30.6131 126.083 31.2623 126.083 31.9071C126.1 38.6125 126.109 45.3179 126.109 52.0234C126.109 53.2482 126.109 54.6201 127.667 54.6677C129.368 54.7153 129.437 53.2914 129.433 51.9714C129.433 45.9123 129.381 39.8056 129.433 33.7249C129.485 27.6441 133.22 23.7706 139.296 23.5845C143.069 23.413 146.792 24.4983 149.882 26.6703C154.21 29.7432 154.864 35.759 150.843 39.1651C148.03 41.5108 144.615 43.1424 140.85 45.4925Z" />
    </g>
    <path d="M18.32 110.981H23.2C24.4533 110.981 25.6133 110.767 26.68 110.341C27.7733 109.887 28.72 109.261 29.52 108.461C30.3467 107.661 30.9733 106.727 31.4 105.661C31.8533 104.594 32.08 103.434 32.08 102.181C32.08 100.927 31.8533 99.7673 31.4 98.7006C30.9467 97.6073 30.32 96.6606 29.52 95.8606C28.72 95.0606 27.7733 94.434 26.68 93.9806C25.6133 93.5273 24.4533 93.3006 23.2 93.3006H18.32V110.981ZM12.52 116.141V88.1406H23.28C25.3867 88.1406 27.3333 88.5006 29.12 89.2206C30.9067 89.914 32.4667 90.9006 33.8 92.1806C35.1333 93.4606 36.1733 94.954 36.92 96.6606C37.6933 98.3673 38.08 100.207 38.08 102.181C38.08 104.181 37.7067 106.021 36.96 107.701C36.2133 109.381 35.16 110.861 33.8 112.141C32.4667 113.394 30.9067 114.381 29.12 115.101C27.3333 115.794 25.3867 116.141 23.28 116.141H12.52ZM47.9406 116.501C46.4473 116.501 45.1273 116.234 43.9806 115.701C42.834 115.141 41.9406 114.381 41.3006 113.421C40.6606 112.461 40.3406 111.354 40.3406 110.101C40.3406 108.101 41.0873 106.554 42.5806 105.461C44.1006 104.341 46.1806 103.781 48.8206 103.781C50.634 103.781 52.3406 104.061 53.9406 104.621V103.101C53.9406 101.901 53.5673 100.994 52.8206 100.381C52.074 99.7673 50.9806 99.4606 49.5406 99.4606C48.6606 99.4606 47.714 99.6073 46.7006 99.9006C45.6873 100.167 44.514 100.594 43.1806 101.181L41.1806 97.1406C42.834 96.394 44.4073 95.834 45.9006 95.4606C47.4206 95.0873 48.9406 94.9006 50.4606 94.9006C53.2606 94.9006 55.434 95.5806 56.9806 96.9406C58.554 98.274 59.3406 100.167 59.3406 102.621V116.141H53.9406V114.661C53.0873 115.301 52.1673 115.767 51.1806 116.061C50.194 116.354 49.114 116.501 47.9406 116.501ZM45.5406 109.981C45.5406 110.781 45.8873 111.421 46.5806 111.901C47.274 112.354 48.194 112.581 49.3406 112.581C50.2473 112.581 51.0873 112.474 51.8606 112.261C52.634 112.021 53.3273 111.674 53.9406 111.221V108.181C53.274 107.914 52.5806 107.714 51.8606 107.581C51.1406 107.447 50.3673 107.381 49.5406 107.381C48.2873 107.381 47.3006 107.621 46.5806 108.101C45.8873 108.554 45.5406 109.181 45.5406 109.981ZM72.7822 116.461C70.4622 116.461 68.7022 115.941 67.5022 114.901C66.3289 113.834 65.7422 112.287 65.7422 110.261V99.8606H61.4622V95.3006H65.7422V89.9806L71.2222 88.7406V95.3006H77.1822V99.8606H71.2222V109.141C71.2222 110.101 71.4355 110.794 71.8622 111.221C72.2889 111.621 73.0355 111.821 74.1022 111.821C74.6355 111.821 75.1155 111.794 75.5422 111.741C75.9955 111.661 76.4889 111.527 77.0222 111.341V115.861C76.4622 116.047 75.7555 116.194 74.9022 116.301C74.0755 116.407 73.3689 116.461 72.7822 116.461ZM86.4953 116.501C85.002 116.501 83.682 116.234 82.5353 115.701C81.3886 115.141 80.4953 114.381 79.8553 113.421C79.2153 112.461 78.8953 111.354 78.8953 110.101C78.8953 108.101 79.642 106.554 81.1353 105.461C82.6553 104.341 84.7353 103.781 87.3753 103.781C89.1886 103.781 90.8953 104.061 92.4953 104.621V103.101C92.4953 101.901 92.122 100.994 91.3753 100.381C90.6286 99.7673 89.5353 99.4606 88.0953 99.4606C87.2153 99.4606 86.2686 99.6073 85.2553 99.9006C84.242 100.167 83.0686 100.594 81.7353 101.181L79.7353 97.1406C81.3886 96.394 82.962 95.834 84.4553 95.4606C85.9753 95.0873 87.4953 94.9006 89.0153 94.9006C91.8153 94.9006 93.9886 95.5806 95.5353 96.9406C97.1086 98.274 97.8953 100.167 97.8953 102.621V116.141H92.4953V114.661C91.642 115.301 90.722 115.767 89.7353 116.061C88.7486 116.354 87.6686 116.501 86.4953 116.501ZM84.0953 109.981C84.0953 110.781 84.442 111.421 85.1353 111.901C85.8286 112.354 86.7486 112.581 87.8953 112.581C88.802 112.581 89.642 112.474 90.4153 112.261C91.1886 112.021 91.882 111.674 92.4953 111.221V108.181C91.8286 107.914 91.1353 107.714 90.4153 107.581C89.6953 107.447 88.922 107.381 88.0953 107.381C86.842 107.381 85.8553 107.621 85.1353 108.101C84.442 108.554 84.0953 109.181 84.0953 109.981ZM102.403 116.141V88.1406H124.043V93.1806H108.203V99.7806H118.723V104.661H108.203V116.141H102.403ZM133.687 116.541C131.607 116.541 129.727 116.061 128.047 115.101C126.367 114.141 125.034 112.847 124.047 111.221C123.061 109.594 122.567 107.767 122.567 105.741C122.567 103.714 123.047 101.887 124.007 100.261C124.994 98.6073 126.327 97.3006 128.007 96.3406C129.714 95.3806 131.607 94.9006 133.687 94.9006C135.767 94.9006 137.647 95.3806 139.327 96.3406C141.034 97.3006 142.367 98.6073 143.327 100.261C144.314 101.887 144.807 103.714 144.807 105.741C144.807 107.767 144.314 109.594 143.327 111.221C142.367 112.847 141.047 114.141 139.367 115.101C137.687 116.061 135.794 116.541 133.687 116.541ZM133.687 111.781C134.781 111.781 135.754 111.514 136.607 110.981C137.487 110.447 138.181 109.727 138.687 108.821C139.221 107.887 139.487 106.861 139.487 105.741C139.487 104.594 139.221 103.567 138.687 102.661C138.181 101.754 137.487 101.034 136.607 100.501C135.754 99.9406 134.781 99.6606 133.687 99.6606C132.621 99.6606 131.647 99.9406 130.767 100.501C129.887 101.034 129.194 101.754 128.687 102.661C128.181 103.567 127.927 104.594 127.927 105.741C127.927 106.861 128.181 107.887 128.687 108.821C129.194 109.727 129.887 110.447 130.767 110.981C131.647 111.514 132.621 111.781 133.687 111.781ZM148.176 116.141V95.3006H153.656V97.6206C154.322 96.714 155.122 96.0206 156.056 95.5406C156.989 95.0606 158.042 94.8206 159.216 94.8206C160.229 94.8473 160.989 95.0073 161.496 95.3006V100.101C161.096 99.914 160.656 99.7806 160.176 99.7006C159.696 99.594 159.202 99.5406 158.696 99.5406C157.629 99.5406 156.656 99.8073 155.776 100.341C154.896 100.874 154.189 101.634 153.656 102.621V116.141H148.176ZM174.163 124.701C172.563 124.701 171.017 124.527 169.523 124.181C168.03 123.861 166.683 123.394 165.483 122.781L167.403 118.541C168.55 119.101 169.67 119.514 170.763 119.781C171.857 120.047 172.95 120.181 174.043 120.181C175.67 120.181 176.897 119.834 177.723 119.141C178.577 118.447 179.003 117.407 179.003 116.021V114.381C177.297 115.634 175.39 116.261 173.283 116.261C171.31 116.261 169.523 115.794 167.923 114.861C166.35 113.901 165.083 112.607 164.123 110.981C163.19 109.354 162.723 107.554 162.723 105.581C162.723 103.607 163.19 101.821 164.123 100.221C165.083 98.6206 166.377 97.354 168.003 96.4206C169.63 95.4606 171.443 94.9806 173.443 94.9806C174.457 94.9806 175.443 95.1273 176.403 95.4206C177.363 95.714 178.257 96.1273 179.083 96.6606V95.3006H184.483V116.101C184.483 118.847 183.59 120.967 181.803 122.461C180.043 123.954 177.497 124.701 174.163 124.701ZM174.123 111.621C175.137 111.621 176.057 111.461 176.883 111.141C177.71 110.794 178.417 110.314 179.003 109.701V101.541C178.417 100.954 177.697 100.501 176.843 100.181C176.017 99.834 175.123 99.6606 174.163 99.6606C173.017 99.6606 171.99 99.9273 171.083 100.461C170.177 100.967 169.457 101.674 168.923 102.581C168.39 103.461 168.123 104.461 168.123 105.581C168.123 106.727 168.377 107.754 168.883 108.661C169.417 109.567 170.137 110.287 171.043 110.821C171.977 111.354 173.003 111.621 174.123 111.621ZM198.962 116.541C196.882 116.541 194.988 116.061 193.282 115.101C191.602 114.141 190.268 112.847 189.282 111.221C188.295 109.594 187.802 107.767 187.802 105.741C187.802 103.714 188.268 101.887 189.202 100.261C190.162 98.634 191.455 97.3406 193.082 96.3806C194.708 95.4206 196.522 94.9406 198.522 94.9406C200.522 94.9406 202.295 95.434 203.842 96.4206C205.388 97.4073 206.602 98.7406 207.482 100.421C208.388 102.101 208.842 104.007 208.842 106.141V107.581H193.402C193.642 108.407 194.028 109.154 194.562 109.821C195.122 110.487 195.802 111.007 196.602 111.381C197.428 111.754 198.308 111.941 199.242 111.941C200.175 111.941 201.028 111.794 201.802 111.501C202.602 111.207 203.282 110.794 203.842 110.261L207.442 113.541C206.162 114.581 204.842 115.341 203.482 115.821C202.148 116.301 200.642 116.541 198.962 116.541ZM193.322 103.661H203.442C203.255 102.834 202.908 102.114 202.402 101.501C201.922 100.861 201.335 100.367 200.642 100.021C199.975 99.6473 199.228 99.4606 198.402 99.4606C197.548 99.4606 196.775 99.634 196.082 99.9806C195.388 100.327 194.802 100.821 194.322 101.461C193.868 102.074 193.535 102.807 193.322 103.661ZM212.199 116.141V95.3006H217.679V97.6206C218.346 96.714 219.146 96.0206 220.079 95.5406C221.012 95.0606 222.066 94.8206 223.239 94.8206C224.252 94.8473 225.012 95.0073 225.519 95.3006V100.101C225.119 99.914 224.679 99.7806 224.199 99.7006C223.719 99.594 223.226 99.5406 222.719 99.5406C221.652 99.5406 220.679 99.8073 219.799 100.341C218.919 100.874 218.212 101.634 217.679 102.621V116.141H212.199Z" />
    
</svg>
