<svg width="188" height="133" viewBox="0 0 188 133" fill="white" xmlns="http://www.w3.org/2000/svg">
    <path fill-rule="evenodd" clip-rule="evenodd" d="M127.953 30.5875C127.953 45.7206 115.763 57.7052 100.837 57.7052C94.3199 57.7052 88.435 55.6044 83.8109 51.8209C87.7965 54.0369 92.2831 55.1955 96.8432 55.1863C111.768 55.1863 123.958 42.9961 123.958 27.8608C123.958 19.2394 119.966 11.677 113.661 6.62962C122.068 11.2507 127.953 20.2909 127.953 30.592V30.5875ZM106.722 3.68228C119.544 11.0405 123.958 27.6454 116.603 40.6792C113.237 46.3533 108.402 50.1405 102.727 52.4484C106.512 50.1382 109.665 46.989 112.185 42.7815C119.544 29.9593 115.129 13.3529 102.1 5.78752C94.7432 1.37511 86.1226 1.16421 78.7666 3.89542C86.9632 -0.938038 97.6824 -1.57073 106.722 3.68378V3.68228ZM115.129 62.5394C102.308 69.8969 85.703 65.4822 78.1361 52.4491C74.7707 46.9852 73.9316 40.8909 74.7707 34.7995C74.7707 39.2119 76.0346 43.6243 78.3485 47.8326C85.9117 60.6443 102.518 65.2698 115.551 57.7052C122.906 53.2912 127.53 46.1431 129 38.3653C129 47.8266 124.168 57.2863 115.129 62.5386V62.5394ZM81.079 67.583C68.2553 60.0176 63.6298 43.4104 71.2004 30.3811C74.5658 24.9142 79.3948 20.9198 84.8639 18.8213C81.2891 21.1307 77.9245 24.2808 75.6128 28.2781C73.8126 31.368 72.6401 34.7828 72.1623 38.3268C71.6846 41.8708 71.9111 45.4743 72.8288 48.9305C73.7466 52.3868 75.3375 55.628 77.5104 58.4681C79.6833 61.3083 82.3955 63.6916 85.4914 65.4815C92.8511 69.686 101.679 70.1078 109.032 67.1627C100.836 72.2078 90.1147 72.6296 81.0782 67.5837L81.079 67.583ZM59.847 40.6792C59.847 25.5439 72.0373 13.5646 86.9617 13.5646C93.4793 13.5646 99.3673 15.6668 103.991 19.4503C100.007 17.2332 95.5199 16.0745 90.9598 16.0849C76.0339 16.0849 63.8414 28.2751 63.8414 43.4074C63.8451 51.8165 67.8343 59.5928 74.1433 64.427C65.7357 59.8074 59.847 50.9788 59.847 40.6792ZM72.4613 8.72739C75.5515 6.92808 78.9663 5.75622 82.5102 5.27894C86.0541 4.80167 89.6573 5.02836 93.1134 5.94604C96.5695 6.86371 99.8105 8.45433 102.651 10.6268C105.491 12.7992 107.875 15.5107 109.665 18.606C112.821 24.2838 113.87 30.3811 113.027 36.2668C112.821 32.0601 111.768 27.4345 109.244 23.4417C101.887 10.4078 85.0703 5.99393 72.2504 13.5646C64.8951 17.7668 60.2711 25.1281 59.0064 32.9059C58.7985 23.4417 63.6298 13.7762 72.4613 8.72888V8.72739Z"/>
    <path d="M2.52 120.164V92.1641H8.32V115.044H23.64V120.164H2.52ZM36.6559 120.564C34.5759 120.564 32.6959 120.084 31.0159 119.124C29.3359 118.164 28.0026 116.871 27.0159 115.244C26.0293 113.617 25.5359 111.791 25.5359 109.764C25.5359 107.737 26.0159 105.911 26.9759 104.284C27.9626 102.631 29.2959 101.324 30.9759 100.364C32.6826 99.4041 34.5759 98.9241 36.6559 98.9241C38.7359 98.9241 40.6159 99.4041 42.2959 100.364C44.0026 101.324 45.3359 102.631 46.2959 104.284C47.2826 105.911 47.7759 107.737 47.7759 109.764C47.7759 111.791 47.2826 113.617 46.2959 115.244C45.3359 116.871 44.0159 118.164 42.3359 119.124C40.6559 120.084 38.7626 120.564 36.6559 120.564ZM36.6559 115.804C37.7493 115.804 38.7226 115.537 39.5759 115.004C40.4559 114.471 41.1493 113.751 41.6559 112.844C42.1893 111.911 42.4559 110.884 42.4559 109.764C42.4559 108.617 42.1893 107.591 41.6559 106.684C41.1493 105.777 40.4559 105.057 39.5759 104.524C38.7226 103.964 37.7493 103.684 36.6559 103.684C35.5893 103.684 34.6159 103.964 33.7359 104.524C32.8559 105.057 32.1626 105.777 31.6559 106.684C31.1493 107.591 30.8959 108.617 30.8959 109.764C30.8959 110.884 31.1493 111.911 31.6559 112.844C32.1626 113.751 32.8559 114.471 33.7359 115.004C34.6159 115.537 35.5893 115.804 36.6559 115.804ZM57.9797 120.524C56.4864 120.524 55.1664 120.257 54.0197 119.724C52.873 119.164 51.9797 118.404 51.3397 117.444C50.6997 116.484 50.3797 115.377 50.3797 114.124C50.3797 112.124 51.1264 110.577 52.6197 109.484C54.1397 108.364 56.2197 107.804 58.8597 107.804C60.673 107.804 62.3797 108.084 63.9797 108.644V107.124C63.9797 105.924 63.6064 105.017 62.8597 104.404C62.113 103.791 61.0197 103.484 59.5797 103.484C58.6997 103.484 57.753 103.631 56.7397 103.924C55.7264 104.191 54.553 104.617 53.2197 105.204L51.2197 101.164C52.873 100.417 54.4464 99.8574 55.9397 99.4841C57.4597 99.1107 58.9797 98.9241 60.4997 98.9241C63.2997 98.9241 65.473 99.6041 67.0197 100.964C68.593 102.297 69.3797 104.191 69.3797 106.644V120.164H63.9797V118.684C63.1264 119.324 62.2064 119.791 61.2197 120.084C60.233 120.377 59.153 120.524 57.9797 120.524ZM55.5797 114.004C55.5797 114.804 55.9264 115.444 56.6197 115.924C57.313 116.377 58.233 116.604 59.3797 116.604C60.2864 116.604 61.1264 116.497 61.8997 116.284C62.673 116.044 63.3664 115.697 63.9797 115.244V112.204C63.313 111.937 62.6197 111.737 61.8997 111.604C61.1797 111.471 60.4064 111.404 59.5797 111.404C58.3264 111.404 57.3397 111.644 56.6197 112.124C55.9264 112.577 55.5797 113.204 55.5797 114.004ZM83.1672 120.444C81.1939 120.444 79.4072 119.964 77.8072 119.004C76.2072 118.044 74.9272 116.764 73.9672 115.164C73.0339 113.537 72.5672 111.724 72.5672 109.724C72.5672 107.724 73.0339 105.924 73.9672 104.324C74.9272 102.697 76.2205 101.417 77.8472 100.484C79.4739 99.5241 81.3005 99.0441 83.3272 99.0441C84.3672 99.0441 85.3672 99.1907 86.3272 99.4841C87.2872 99.7507 88.1805 100.151 89.0072 100.684V92.1641L94.4872 91.2441V120.164H89.0872V118.444C87.3805 119.777 85.4072 120.444 83.1672 120.444ZM84.0472 115.764C85.0605 115.764 85.9805 115.604 86.8072 115.284C87.6605 114.937 88.3939 114.431 89.0072 113.764V105.644C88.3939 105.031 87.6605 104.551 86.8072 104.204C85.9539 103.857 85.0339 103.684 84.0472 103.684C82.9005 103.684 81.8605 103.951 80.9272 104.484C80.0205 104.991 79.3005 105.711 78.7672 106.644C78.2339 107.551 77.9672 108.577 77.9672 109.724C77.9672 110.871 78.2339 111.897 78.7672 112.804C79.3005 113.711 80.0205 114.431 80.9272 114.964C81.8605 115.497 82.9005 115.764 84.0472 115.764ZM99.1216 120.164V92.1641H104.922V115.044H120.242V120.164H99.1216ZM133.298 120.564C131.218 120.564 129.324 120.084 127.618 119.124C125.938 118.164 124.604 116.871 123.618 115.244C122.631 113.617 122.138 111.791 122.138 109.764C122.138 107.737 122.604 105.911 123.538 104.284C124.498 102.657 125.791 101.364 127.418 100.404C129.044 99.4441 130.858 98.9641 132.858 98.9641C134.858 98.9641 136.631 99.4574 138.178 100.444C139.724 101.431 140.938 102.764 141.818 104.444C142.724 106.124 143.178 108.031 143.178 110.164V111.604H127.738C127.978 112.431 128.364 113.177 128.898 113.844C129.458 114.511 130.138 115.031 130.938 115.404C131.764 115.777 132.644 115.964 133.578 115.964C134.511 115.964 135.364 115.817 136.138 115.524C136.938 115.231 137.618 114.817 138.178 114.284L141.778 117.564C140.498 118.604 139.178 119.364 137.818 119.844C136.484 120.324 134.978 120.564 133.298 120.564ZM127.658 107.684H137.778C137.591 106.857 137.244 106.137 136.738 105.524C136.258 104.884 135.671 104.391 134.978 104.044C134.311 103.671 133.564 103.484 132.738 103.484C131.884 103.484 131.111 103.657 130.418 104.004C129.724 104.351 129.138 104.844 128.658 105.484C128.204 106.097 127.871 106.831 127.658 107.684ZM146.535 120.164V99.3241H152.015V101.044C153.588 99.6307 155.535 98.9241 157.855 98.9241C159.482 98.9241 160.908 99.2841 162.135 100.004C163.388 100.697 164.362 101.671 165.055 102.924C165.748 104.151 166.095 105.591 166.095 107.244V120.164H160.615V108.044C160.615 106.684 160.228 105.617 159.455 104.844C158.682 104.044 157.628 103.644 156.295 103.644C155.362 103.644 154.535 103.831 153.815 104.204C153.095 104.551 152.495 105.057 152.015 105.724V120.164H146.535ZM178.046 120.564C176.126 120.564 174.353 120.324 172.726 119.844C171.099 119.337 169.686 118.617 168.486 117.684L171.206 114.044C172.406 114.844 173.553 115.444 174.646 115.844C175.766 116.244 176.873 116.444 177.966 116.444C179.193 116.444 180.166 116.244 180.886 115.844C181.633 115.417 182.006 114.871 182.006 114.204C182.006 113.671 181.793 113.244 181.366 112.924C180.966 112.604 180.313 112.377 179.406 112.244L175.406 111.644C173.326 111.324 171.753 110.657 170.686 109.644C169.619 108.604 169.086 107.244 169.086 105.564C169.086 104.204 169.433 103.044 170.126 102.084C170.846 101.097 171.846 100.337 173.126 99.8041C174.433 99.2441 175.979 98.9641 177.766 98.9641C179.286 98.9641 180.766 99.1774 182.206 99.6041C183.673 100.031 185.046 100.684 186.326 101.564L183.686 105.124C182.539 104.404 181.446 103.884 180.406 103.564C179.366 103.244 178.313 103.084 177.246 103.084C176.259 103.084 175.459 103.271 174.846 103.644C174.259 104.017 173.966 104.511 173.966 105.124C173.966 105.684 174.179 106.124 174.606 106.444C175.033 106.764 175.766 106.991 176.806 107.124L180.766 107.724C182.846 108.017 184.433 108.684 185.526 109.724C186.619 110.737 187.166 112.057 187.166 113.684C187.166 115.017 186.766 116.204 185.966 117.244C185.166 118.257 184.086 119.071 182.726 119.684C181.366 120.271 179.806 120.564 178.046 120.564Z"/>
</svg>
