<svg width="633" height="69" viewBox="0 0 633 69" fill="none" xmlns="http://www.w3.org/2000/svg">
<path d="M632.202 2.45739C632.455 2.34584 632.569 2.05064 632.457 1.79803C632.346 1.54542 632.051 1.43106 631.798 1.54261L632.202 2.45739ZM0 2L3.41699 6.65376L5.73877 1.36768L0 2ZM631.798 1.54261C630.881 1.9474 629.964 2.35049 629.045 2.75187L629.445 3.66824C630.365 3.26633 631.284 2.86272 632.202 2.45739L631.798 1.54261ZM623.52 5.13955C621.677 5.92742 619.83 6.70843 617.979 7.48254L618.365 8.40512C620.218 7.62999 622.068 6.84796 623.913 6.05905L623.52 5.13955ZM612.417 9.78274C610.562 10.5416 608.703 11.2935 606.839 12.0384L607.21 12.967C609.076 12.221 610.938 11.4681 612.796 10.7083L612.417 9.78274ZM601.243 14.2502C599.375 14.98 597.504 15.7029 595.628 16.4187L595.985 17.353C597.863 16.6362 599.737 15.9124 601.607 15.1817L601.243 14.2502ZM590 18.5417C588.121 19.2419 586.238 19.9352 584.352 20.6214L584.694 21.5611C586.583 20.874 588.468 20.1799 590.349 19.4787L590 18.5417ZM578.689 22.6564C576.8 23.3269 574.907 23.9903 573.011 24.6467L573.338 25.5917C575.237 24.9345 577.132 24.2701 579.024 23.5988L578.689 22.6564ZM567.315 26.5935C565.416 27.2341 563.514 27.8677 561.608 28.4942L561.92 29.4442C563.828 28.8169 565.733 28.1825 567.635 27.541L567.315 26.5935ZM555.883 30.3512C553.974 30.9623 552.061 31.5663 550.145 32.1632L550.442 33.118C552.361 32.5203 554.276 31.9155 556.188 31.3036L555.883 30.3512ZM544.393 33.93C542.474 34.5115 540.551 35.0858 538.625 35.6529L538.908 36.6122C540.836 36.0443 542.762 35.4693 544.683 34.8871L544.393 33.93ZM532.848 37.3295C530.921 37.8808 528.99 38.425 527.056 38.9619L527.323 39.9255C529.26 39.3878 531.193 38.843 533.123 38.291L532.848 37.3295ZM521.251 40.5491C519.316 41.0702 517.377 41.5841 515.435 42.0907L515.688 43.0583C517.632 42.551 519.573 42.0364 521.511 41.5147L521.251 40.5491ZM509.605 43.5881C507.662 44.0789 505.716 44.5626 503.767 45.039L504.004 46.0104C505.956 45.5334 507.904 45.0491 509.85 44.5576L509.605 43.5881ZM497.915 46.4453C495.964 46.9062 494.01 47.3599 492.053 47.8062L492.276 48.7812C494.235 48.3343 496.192 47.88 498.145 47.4186L497.915 46.4453ZM486.182 49.1215C484.224 49.5523 482.262 49.9759 480.298 50.3921L480.505 51.3704C482.472 50.9536 484.436 50.5295 486.397 50.0981L486.182 49.1215ZM474.409 51.6161C472.444 52.0166 470.477 52.4097 468.507 52.7955L468.699 53.7768C470.672 53.3905 472.642 52.9969 474.608 52.596L474.409 51.6161ZM462.597 53.9291C460.627 54.299 458.655 54.6617 456.68 55.017L456.857 56.0012C458.834 55.6455 460.809 55.2823 462.782 54.9119L462.597 53.9291ZM450.75 56.0601C448.776 56.3996 446.799 56.7318 444.819 57.0566L444.981 58.0435C446.963 57.7182 448.943 57.3856 450.92 57.0456L450.75 56.0601ZM438.875 58.0084C436.895 58.3177 434.912 58.6196 432.927 58.9142L433.074 59.9033C435.062 59.6084 437.047 59.3061 439.03 58.9964L438.875 58.0084ZM426.972 59.7745C424.986 60.0536 422.998 60.3253 421.008 60.5896L421.139 61.5809C423.132 61.3162 425.123 61.0442 427.111 60.7648L426.972 59.7745ZM415.042 61.3586C413.052 61.6073 411.06 61.8487 409.065 62.0826L409.182 63.0758C411.179 62.8416 413.174 62.5999 415.166 62.3508L415.042 61.3586ZM403.088 62.7606C401.096 62.9789 399.101 63.1899 397.103 63.3934L397.205 64.3882C399.204 64.1844 401.202 63.9732 403.197 63.7546L403.088 62.7606ZM391.114 63.9807C389.119 64.1686 387.122 64.3492 385.122 64.5223L385.208 65.5186C387.21 65.3453 389.21 65.1645 391.208 64.9762L391.114 63.9807ZM379.122 65.019C377.125 65.1766 375.126 65.3269 373.124 65.4697L373.195 66.4672C375.199 66.3242 377.201 66.1737 379.2 66.0159L379.122 65.019ZM367.118 65.8755C365.119 66.003 363.117 66.1231 361.113 66.2358L361.169 67.2342C363.175 67.1214 365.18 67.0011 367.182 66.8735L367.118 65.8755ZM355.103 66.5509C353.101 66.6483 351.097 66.7383 349.09 66.8208L349.131 67.82C351.14 67.7373 353.147 67.6472 355.152 67.5497L355.103 66.5509ZM343.079 67.0455C341.075 67.1129 339.068 67.1728 337.06 67.2253L337.086 68.2249C339.097 68.1724 341.106 68.1124 343.112 68.0449L343.079 67.0455ZM331.048 67.3598C329.043 67.3972 327.037 67.4271 325.029 67.4496L325.04 68.4495C327.051 68.427 329.059 68.3971 331.066 68.3597L331.048 67.3598ZM319.012 67.4944C318.009 67.4981 317.005 67.5 316 67.5V68.5C317.006 68.5 318.011 68.4981 319.016 68.4944L319.012 67.4944ZM316 67.5C314.995 67.5 313.991 67.4981 312.988 67.4944L312.984 68.4944C313.989 68.4981 314.994 68.5 316 68.5V67.5ZM306.971 67.4496C304.963 67.4271 302.957 67.3972 300.952 67.3598L300.934 68.3597C302.941 68.3971 304.949 68.427 306.96 68.4495L306.971 67.4496ZM294.94 67.2253C292.932 67.1728 290.926 67.1129 288.921 67.0455L288.888 68.0449C290.894 68.1124 292.903 68.1724 294.914 68.2249L294.94 67.2253ZM282.91 66.8208C280.903 66.7383 278.899 66.6483 276.897 66.5509L276.848 67.5497C278.853 67.6472 280.86 67.7373 282.869 67.82L282.91 66.8208ZM270.887 66.2358C268.883 66.1231 266.882 66.003 264.882 65.8755L264.818 66.8735C266.82 67.0012 268.825 67.1214 270.831 67.2342L270.887 66.2358ZM258.876 65.4697C256.875 65.3269 254.875 65.1766 252.879 65.019L252.8 66.0159C254.799 66.1737 256.801 66.3242 258.805 66.4672L258.876 65.4697ZM246.878 64.5223C244.879 64.3492 242.881 64.1686 240.886 63.9807L240.792 64.9763C242.79 65.1645 244.79 65.3453 246.792 65.5186L246.878 64.5223ZM234.897 63.3934C232.9 63.1899 230.905 62.9789 228.912 62.7606L228.803 63.7546C230.798 63.9733 232.796 64.1845 234.796 64.3882L234.897 63.3934ZM222.935 62.0826C220.94 61.8487 218.948 61.6073 216.958 61.3586L216.834 62.3509C218.827 62.5999 220.821 62.8416 222.818 63.0758L222.935 62.0826ZM210.992 60.5896C209.002 60.3253 207.014 60.0536 205.028 59.7745L204.889 60.7648C206.877 61.0442 208.868 61.3163 210.861 61.5809L210.992 60.5896ZM199.073 58.9142C197.088 58.6196 195.105 58.3177 193.125 58.0084L192.971 58.9964C194.953 59.3061 196.938 59.6084 198.926 59.9034L199.073 58.9142ZM187.181 57.0567C185.201 56.7318 183.224 56.3996 181.25 56.0601L181.08 57.0456C183.057 57.3856 185.037 57.7182 187.019 58.0435L187.181 57.0567ZM175.321 55.017C173.345 54.6617 171.373 54.2991 169.403 53.9291L169.218 54.9119C171.191 55.2823 173.166 55.6455 175.143 56.0013L175.321 55.017ZM163.493 52.7955C161.523 52.4097 159.556 52.0166 157.591 51.6161L157.392 52.596C159.359 52.9969 161.328 53.3905 163.301 53.7768L163.493 52.7955ZM151.702 50.3921C149.738 49.9759 147.776 49.5523 145.818 49.1215L145.603 50.0981C147.564 50.5295 149.528 50.9536 151.495 51.3704L151.702 50.3921ZM139.947 47.8062C137.99 47.3599 136.036 46.9062 134.085 46.4454L133.855 47.4186C135.808 47.88 137.765 48.3343 139.724 48.7812L139.947 47.8062ZM128.233 45.039C126.284 44.5626 124.338 44.079 122.395 43.5881L122.151 44.5576C124.096 45.0491 126.044 45.5334 127.996 46.0104L128.233 45.039ZM116.565 42.0908C114.623 41.5841 112.684 41.0702 110.749 40.5491L110.489 41.5147C112.427 42.0365 114.368 42.551 116.312 43.0584L116.565 42.0908ZM104.944 38.9619C103.01 38.425 101.079 37.8808 99.1517 37.3295L98.8767 38.291C100.807 38.843 102.74 39.3878 104.677 39.9255L104.944 38.9619ZM93.3747 35.6529C91.4487 35.0858 89.526 34.5115 87.6068 33.9301L87.3168 34.8871C89.2385 35.4693 91.1637 36.0443 93.0922 36.6122L93.3747 35.6529ZM81.8555 32.1632C79.9391 31.5663 78.0263 30.9623 76.1169 30.3512L75.8121 31.3036C77.7239 31.9155 79.6393 32.5203 81.558 33.118L81.8555 32.1632ZM70.3925 28.4943C68.4865 27.8678 66.5841 27.2342 64.6853 26.5935L64.3656 27.5411C66.2669 28.1825 68.1718 28.8169 70.0802 29.4443L70.3925 28.4943ZM58.989 24.6468C57.0927 23.9904 55.2 23.3269 53.311 22.6564L52.9764 23.5988C54.8679 24.2702 56.7631 24.9345 58.6619 25.5918L58.989 24.6468ZM47.6481 20.6214C45.7618 19.9352 43.8792 19.242 42.0004 18.5417L41.6512 19.4788C43.5324 20.1799 45.4174 20.8741 47.3062 21.5612L47.6481 20.6214ZM36.3719 16.4187C34.4963 15.7029 32.6246 14.98 30.7568 14.2503L30.3928 15.1817C32.2631 15.9124 34.1373 16.6362 36.0153 17.353L36.3719 16.4187ZM25.1609 12.0385C23.2975 11.2935 21.4382 10.5416 19.5827 9.78277L19.2042 10.7084C21.0621 11.4682 22.9239 12.2211 24.7896 12.967L25.1609 12.0385ZM14.0211 7.48257C12.17 6.70845 10.3229 5.92744 8.47998 5.13957L8.08685 6.05907C9.93225 6.84798 11.7817 7.63001 13.6352 8.40514L14.0211 7.48257ZM632.404 2.91478C632.909 2.69169 633.138 2.10127 632.915 1.59605C632.692 1.09083 632.101 0.862122 631.596 1.08522L632.404 2.91478ZM0 2L6.83398 11.3075L11.4775 0.735352L0 2ZM631.596 1.08522C630.68 1.48975 629.763 1.89257 628.845 2.29369L629.645 4.12642C630.566 3.72426 631.485 3.32037 632.404 2.91478L631.596 1.08522ZM623.324 4.6798C621.482 5.46716 619.636 6.24765 617.786 7.02126L618.558 8.86641C620.412 8.09077 622.263 7.30822 624.11 6.5188L623.324 4.6798ZM612.228 9.31995C610.374 10.0783 608.516 10.8297 606.654 11.5742L607.396 13.4313C609.263 12.6848 611.126 11.9314 612.985 11.1711L612.228 9.31995ZM601.061 13.7845C599.195 14.5138 597.324 15.2362 595.45 15.9516L596.163 17.8201C598.042 17.1029 599.918 16.3786 601.789 15.6474L601.061 13.7845ZM589.825 18.0732C587.947 18.773 586.066 19.4657 584.181 20.1515L584.865 22.031C586.755 21.3434 588.641 20.6489 590.524 19.9473L589.825 18.0732ZM578.522 22.1852C576.634 22.8552 574.743 23.5183 572.848 24.1742L573.502 26.0642C575.402 25.4065 577.298 24.7418 579.191 24.07L578.522 22.1852ZM567.155 26.1197C565.257 26.76 563.356 27.3931 561.452 28.0192L562.076 29.9192C563.986 29.2915 565.892 28.6567 567.794 28.0148L567.155 26.1197ZM555.731 29.875C553.823 30.4857 551.911 31.0893 549.996 31.6858L550.591 33.5953C552.511 32.9973 554.427 32.3921 556.34 31.7798L555.731 29.875ZM544.248 33.4515C542.33 34.0326 540.409 34.6065 538.484 35.1733L539.049 37.0918C540.979 36.5236 542.905 35.9482 544.828 35.3656L544.248 33.4515ZM532.711 36.8488C530.785 37.3997 528.855 37.9435 526.922 38.4801L527.457 40.4072C529.395 39.8693 531.33 39.3241 533.261 38.7717L532.711 36.8488ZM521.121 40.0663C519.187 40.587 517.25 41.1006 515.309 41.6069L515.814 43.5421C517.76 43.0345 519.702 42.5196 521.641 41.9975L521.121 40.0663ZM509.482 43.1033C507.541 43.5939 505.596 44.0772 503.648 44.5533L504.123 46.4961C506.076 46.0188 508.026 45.5342 509.972 45.0424L509.482 43.1033ZM497.8 45.9587C495.851 46.4193 493.898 46.8727 491.942 47.3188L492.387 49.2687C494.348 48.8215 496.306 48.3669 498.26 47.9052L497.8 45.9587ZM486.075 48.6332C484.118 49.0637 482.157 49.487 480.194 49.903L480.609 51.8595C482.577 51.4425 484.542 51.0181 486.505 50.5865L486.075 48.6332ZM474.309 51.1262C472.346 51.5264 470.38 51.9192 468.411 52.3048L468.795 54.2675C470.769 53.881 472.74 53.4871 474.708 53.0859L474.309 51.1262ZM462.505 53.4377C460.536 53.8074 458.565 54.1698 456.591 54.5249L456.945 56.4933C458.924 56.1373 460.901 55.774 462.874 55.4033L462.505 53.4377ZM450.666 55.5673C448.692 55.9066 446.716 56.2386 444.738 56.5632L445.062 58.5369C447.045 58.2114 449.026 57.8785 451.005 57.5384L450.666 55.5673ZM438.798 57.5144C436.819 57.8235 434.838 58.1252 432.854 58.4196L433.147 60.3979C435.136 60.1028 437.123 59.8003 439.107 59.4904L438.798 57.5144ZM426.902 59.2794C424.918 59.5583 422.931 59.8298 420.942 60.0939L421.205 62.0765C423.199 61.8117 425.191 61.5395 427.18 61.2599L426.902 59.2794ZM414.98 60.8624C412.991 61.111 411 61.3522 409.007 61.586L409.24 63.5724C411.238 63.338 413.234 63.0962 415.228 62.847L414.98 60.8624ZM403.034 62.2636C401.042 62.4818 399.049 62.6926 397.053 62.8959L397.255 64.8856C399.256 64.6817 401.255 64.4704 403.252 64.2517L403.034 62.2636ZM391.067 63.4829C389.073 63.6707 387.077 63.8512 385.079 64.0242L385.251 66.0167C387.255 65.8433 389.256 65.6624 391.255 65.474L391.067 63.4829ZM379.082 64.5205C377.087 64.6781 375.089 64.8282 373.089 64.971L373.231 66.9659C375.236 66.8228 377.239 66.6723 379.24 66.5143L379.082 64.5205ZM367.086 65.3765C365.088 65.5039 363.087 65.624 361.085 65.7365L361.197 67.7334C363.205 67.6205 365.21 67.5002 367.214 67.3725L367.086 65.3765ZM355.079 66.0514C353.078 66.1488 351.075 66.2388 349.07 66.3212L349.152 68.3195C351.162 68.2369 353.17 68.1467 355.176 68.0491L355.079 66.0514ZM343.062 66.5458C341.059 66.6131 339.054 66.673 337.047 66.7255L337.099 68.7248C339.111 68.6722 341.121 68.6122 343.129 68.5446L343.062 66.5458ZM331.038 66.8599C329.035 66.8973 327.03 66.9272 325.023 66.9496L325.045 68.9495C327.057 68.927 329.067 68.897 331.076 68.8596L331.038 66.8599ZM319.011 66.9944C318.007 66.9981 317.004 67 316 67V69C317.006 69 318.012 68.9981 319.018 68.9944L319.011 66.9944ZM316 67C314.996 67 313.993 66.9981 312.99 66.9944L312.982 68.9944C313.988 68.9981 314.994 69 316 69V67ZM306.977 66.9496C304.97 66.9272 302.965 66.8973 300.962 66.8599L300.924 68.8596C302.933 68.897 304.943 68.927 306.955 68.9495L306.977 66.9496ZM294.953 66.7255C292.946 66.673 290.941 66.6131 288.938 66.5458L288.871 68.5447C290.879 68.6122 292.889 68.6722 294.901 68.7248L294.953 66.7255ZM282.93 66.3212C280.925 66.2388 278.922 66.1488 276.921 66.0515L276.824 68.0491C278.83 68.1467 280.838 68.2369 282.848 68.3196L282.93 66.3212ZM270.915 65.7365C268.913 65.624 266.912 65.504 264.914 65.3765L264.786 67.3725C266.79 67.5002 268.795 67.6205 270.803 67.7334L270.915 65.7365ZM258.911 64.971C256.911 64.8283 254.913 64.6781 252.918 64.5205L252.76 66.5143C254.761 66.6723 256.764 66.8228 258.769 66.9659L258.911 64.971ZM246.921 64.0242C244.923 63.8512 242.927 63.6707 240.933 63.4829L240.746 65.4741C242.744 65.6624 244.745 65.8433 246.749 66.0168L246.921 64.0242ZM234.948 62.896C232.951 62.6926 230.958 62.4818 228.966 62.2636L228.749 64.2517C230.745 64.4704 232.744 64.6818 234.745 64.8857L234.948 62.896ZM222.993 61.586C221 61.3522 219.009 61.111 217.02 60.8624L216.772 62.847C218.766 63.0962 220.762 63.338 222.76 63.5724L222.993 61.586ZM211.058 60.0939C209.069 59.8298 207.082 59.5583 205.098 59.2794L204.82 61.2599C206.809 61.5395 208.801 61.8117 210.795 62.0765L211.058 60.0939ZM199.146 58.4196C197.162 58.1252 195.181 57.8235 193.202 57.5144L192.893 59.4904C194.877 59.8003 196.864 60.1028 198.853 60.3979L199.146 58.4196ZM187.262 56.5633C185.284 56.2386 183.308 55.9066 181.334 55.5673L180.995 57.5384C182.974 57.8785 184.955 58.2114 186.939 58.5369L187.262 56.5633ZM175.409 54.5249C173.435 54.1698 171.464 53.8074 169.495 53.4377L169.126 55.4033C171.1 55.774 173.076 56.1373 175.055 56.4934L175.409 54.5249ZM163.589 52.3048C161.62 51.9192 159.654 51.5264 157.691 51.1262L157.292 53.0859C159.26 53.4871 161.231 53.881 163.205 54.2675L163.589 52.3048ZM151.806 49.903C149.843 49.487 147.882 49.0637 145.925 48.6332L145.495 50.5865C147.458 51.0181 149.423 51.4425 151.391 51.8595L151.806 49.903ZM140.058 47.3188C138.102 46.8727 136.149 46.4193 134.2 45.9588L133.74 47.9052C135.695 48.3669 137.652 48.8215 139.613 49.2687L140.058 47.3188ZM128.352 44.5533C126.404 44.0772 124.459 43.5939 122.518 43.1033L122.028 45.0424C123.974 45.5342 125.924 46.0188 127.877 46.4961L128.352 44.5533ZM116.691 41.607C114.75 41.1006 112.813 40.587 110.879 40.0663L110.359 41.9975C112.298 42.5196 114.24 43.0345 116.186 43.5422L116.691 41.607ZM105.078 38.4801C103.145 37.9435 101.216 37.3998 99.2892 36.8488L98.7393 38.7717C100.671 39.3241 102.605 39.8693 104.543 40.4072L105.078 38.4801ZM93.5159 35.1733C91.5911 34.6065 89.6697 34.0326 87.7517 33.4515L87.1718 35.3656C89.0948 35.9482 91.0212 36.5236 92.951 37.0918L93.5159 35.1733ZM82.0042 31.6859C80.0891 31.0893 78.1775 30.4857 76.2694 29.875L75.6597 31.7798C77.5728 32.3921 79.4893 32.9973 81.4094 33.5954L82.0042 31.6859ZM70.5486 28.0193C68.6439 27.3932 66.7427 26.76 64.8452 26.1198L64.2057 28.0148C66.1083 28.6567 68.0143 29.2915 69.924 29.9193L70.5486 28.0193ZM59.1526 24.1743C57.2574 23.5183 55.366 22.8553 53.4782 22.1852L52.8092 24.07C54.7019 24.7418 56.5983 25.4066 58.4984 26.0643L59.1526 24.1743ZM47.819 20.1515C45.9339 19.4658 44.0526 18.773 42.175 18.0732L41.4766 19.9473C43.359 20.6489 45.2452 21.3435 47.1353 22.031L47.819 20.1515ZM36.5502 15.9516C34.6758 15.2362 32.8054 14.5139 30.9387 13.7845L30.2109 15.6474C32.0824 16.3786 33.9578 17.1029 35.837 17.8201L36.5502 15.9516ZM25.3465 11.5742C23.4844 10.8297 21.6262 10.0783 19.772 9.31998L19.015 11.1711C20.874 11.9315 22.7371 12.6848 24.604 13.4313L25.3465 11.5742ZM14.2139 7.02128C12.3641 6.24768 10.5183 5.46717 8.67651 4.67982L7.89032 6.51882C9.73694 7.30825 11.5876 8.09079 13.4423 8.86643L14.2139 7.02128Z" fill="white"/>
</svg>
