<svg width="145" height="132" viewBox="0 0 145 132" fill="white" xmlns="http://www.w3.org/2000/svg">
    <g clip-path="url(#clip0_4_25324)">
        <path d="M85.2426 3.50386C78.2362 -0.316312 68.5722 -0.597146 60.4817 3.88588C53.5063 7.7618 49.7212 16.5317 51.2369 25.5948C55.9182 26.8668 60.4177 29.7247 62.4455 34.1354C64.4733 38.5462 63.2818 44.5449 59.0714 46.9547C60.9877 45.8582 61.4564 42.5625 61.1033 40.4253C60.7432 38.3729 59.8519 36.4507 58.518 34.8499C55.214 31.0545 50.5266 28.4485 45.5087 27.8291C38.4177 26.9659 30.9694 30.1501 26.6949 35.8824C22.4204 41.6147 21.4933 49.6515 24.3367 56.2057C25.6707 59.2804 27.8079 62.0454 30.6163 63.877C36.615 67.8004 45.4509 67.945 51.6334 64.3272C57.8159 60.7094 61.6237 56.1603 66.1418 48.5137C69.7864 42.3498 73.5653 35.711 78.8124 30.846C84.0594 25.9809 91.167 22.5201 98.2581 23.5216C96.4512 15.3629 92.249 7.32403 85.2426 3.50386Z"/>
        <path d="M93.7584 68.1844C96.9385 70.3443 101.006 70.939 104.812 70.3898C113.072 69.1983 120.225 62.4521 121.908 54.2831C123.591 46.1141 119.674 37.0882 112.56 32.7332C105.446 28.3782 95.6272 28.9977 89.1185 34.2096C86.593 36.2312 84.588 38.8166 82.6407 41.4019C77.976 47.5968 73.462 53.9527 67.8494 59.2968C62.2369 64.6409 55.3544 68.967 47.6934 70.1316C57.8137 71.1268 67.9571 68.4783 76.2992 62.6627C78.9837 60.7836 81.4286 58.5947 84.1626 56.8023C86.8966 55.01 90.0043 53.5955 93.2732 53.5253C96.542 53.455 99.9802 54.9501 101.564 57.81C103.148 60.67 102.27 64.8453 99.3442 66.3032C101.351 65.0374 101.68 61.9854 100.397 59.9886C98.514 57.0522 92.1374 55.2784 89.6037 58.3841C87.1134 61.4464 91.3321 66.5386 93.7584 68.1844Z"/>
    </g>
    <path d="M2.52 119.582V91.582H8.04L21.96 109.662V91.582H27.4V119.582H22.28L8 100.862V119.582H2.52ZM32.1209 119.582V98.742H37.6009V119.582H32.1209ZM34.8409 96.262C33.9876 96.262 33.2543 95.9554 32.6409 95.342C32.0276 94.7287 31.7209 93.9954 31.7209 93.142C31.7209 92.262 32.0276 91.5287 32.6409 90.942C33.2543 90.3287 33.9876 90.022 34.8409 90.022C35.7209 90.022 36.4543 90.3287 37.0409 90.942C37.6543 91.5287 37.9609 92.262 37.9609 93.142C37.9609 93.9954 37.6543 94.7287 37.0409 95.342C36.4543 95.9554 35.7209 96.262 34.8409 96.262ZM41.8866 119.582V98.742H47.3666V100.342C48.8599 99.0087 50.6732 98.342 52.8066 98.342C54.1666 98.342 55.3799 98.622 56.4466 99.182C57.5132 99.7154 58.3932 100.475 59.0866 101.462C59.9399 100.449 60.9399 99.6754 62.0866 99.142C63.2599 98.6087 64.5532 98.342 65.9666 98.342C67.5399 98.342 68.9132 98.702 70.0866 99.422C71.2866 100.115 72.2199 101.089 72.8866 102.342C73.5799 103.569 73.9266 105.009 73.9266 106.662V119.582H68.4866V107.462C68.4866 106.102 68.1266 105.035 67.4066 104.262C66.6866 103.462 65.7266 103.062 64.5266 103.062C63.6999 103.062 62.9399 103.235 62.2466 103.582C61.5799 103.929 61.0066 104.449 60.5266 105.142C60.5532 105.382 60.5799 105.622 60.6066 105.862C60.6332 106.102 60.6466 106.369 60.6466 106.662V119.582H55.1666V107.462C55.1666 106.102 54.8066 105.035 54.0866 104.262C53.3932 103.462 52.4466 103.062 51.2466 103.062C50.4199 103.062 49.6732 103.222 49.0066 103.542C48.3666 103.862 47.8199 104.342 47.3666 104.982V119.582H41.8866ZM78.0975 119.582V91.582L83.5775 90.662V100.422C85.2308 99.1154 87.1775 98.462 89.4175 98.462C91.3908 98.462 93.1775 98.942 94.7775 99.902C96.3775 100.862 97.6442 102.155 98.5775 103.782C99.5375 105.382 100.018 107.182 100.018 109.182C100.018 111.182 99.5375 112.995 98.5775 114.622C97.6175 116.222 96.3242 117.502 94.6975 118.462C93.0708 119.395 91.2575 119.862 89.2575 119.862C88.2175 119.862 87.2042 119.715 86.2175 119.422C85.2308 119.129 84.3242 118.702 83.4975 118.142V119.582H78.0975ZM88.5375 115.222C89.6842 115.222 90.7108 114.955 91.6175 114.422C92.5508 113.889 93.2842 113.169 93.8175 112.262C94.3508 111.355 94.6175 110.329 94.6175 109.182C94.6175 108.035 94.3508 107.009 93.8175 106.102C93.2842 105.169 92.5508 104.449 91.6175 103.942C90.7108 103.409 89.6842 103.142 88.5375 103.142C87.5242 103.142 86.5908 103.315 85.7375 103.662C84.9108 103.982 84.1908 104.475 83.5775 105.142V113.262C84.1642 113.875 84.8842 114.355 85.7375 114.702C86.6175 115.049 87.5508 115.222 88.5375 115.222ZM111.412 119.982C109.812 119.982 108.385 119.635 107.132 118.942C105.905 118.222 104.932 117.235 104.212 115.982C103.519 114.729 103.172 113.289 103.172 111.662V98.742H108.652V110.862C108.652 112.195 109.039 113.262 109.812 114.062C110.612 114.862 111.679 115.262 113.012 115.262C113.919 115.262 114.732 115.089 115.452 114.742C116.199 114.369 116.812 113.849 117.292 113.182V98.742H122.772V119.582H117.292V117.902C115.692 119.289 113.732 119.982 111.412 119.982ZM134.843 119.982C132.923 119.982 131.149 119.742 129.523 119.262C127.896 118.755 126.483 118.035 125.283 117.102L128.003 113.462C129.203 114.262 130.349 114.862 131.443 115.262C132.563 115.662 133.669 115.862 134.763 115.862C135.989 115.862 136.963 115.662 137.683 115.262C138.429 114.835 138.803 114.289 138.803 113.622C138.803 113.089 138.589 112.662 138.163 112.342C137.763 112.022 137.109 111.795 136.203 111.662L132.203 111.062C130.123 110.742 128.549 110.075 127.483 109.062C126.416 108.022 125.883 106.662 125.883 104.982C125.883 103.622 126.229 102.462 126.923 101.502C127.643 100.515 128.643 99.7554 129.923 99.222C131.229 98.662 132.776 98.382 134.563 98.382C136.083 98.382 137.563 98.5954 139.003 99.022C140.469 99.4487 141.843 100.102 143.123 100.982L140.483 104.542C139.336 103.822 138.243 103.302 137.203 102.982C136.163 102.662 135.109 102.502 134.043 102.502C133.056 102.502 132.256 102.689 131.643 103.062C131.056 103.435 130.763 103.929 130.763 104.542C130.763 105.102 130.976 105.542 131.403 105.862C131.829 106.182 132.563 106.409 133.603 106.542L137.563 107.142C139.643 107.435 141.229 108.102 142.323 109.142C143.416 110.155 143.963 111.475 143.963 113.102C143.963 114.435 143.563 115.622 142.763 116.662C141.963 117.675 140.883 118.489 139.523 119.102C138.163 119.689 136.603 119.982 134.843 119.982Z"/>
    <defs>
        <clipPath id="clip0_4_25324">
            <rect width="99.5867" height="70" transform="translate(22.707 0.582031)"/>
        </clipPath>
    </defs>
</svg>
