<svg width="63" height="63" viewBox="0 0 63 63" fill="none" xmlns="http://www.w3.org/2000/svg">
<circle cx="31.5" cy="31.5" r="31.5" fill="#E8FCAF"/>
<path d="M40 32C40.0006 32.2089 39.9412 32.4144 39.8277 32.5965C39.7142 32.7786 39.5504 32.9311 39.3523 33.0392L27.0727 39.8189C26.8657 39.9333 26.6286 39.9957 26.3859 39.9998C26.1431 40.0038 25.9036 39.9493 25.692 39.8419C25.4825 39.7362 25.3079 39.582 25.1863 39.3951C25.0646 39.2083 25.0004 38.9956 25 38.7789V25.2211C25.0004 25.0044 25.0646 24.7917 25.1863 24.6049C25.3079 24.418 25.4825 24.2638 25.692 24.1581C25.9036 24.0506 26.1431 23.9962 26.3859 24.0002C26.6286 24.0043 26.8657 24.0667 27.0727 24.1811L39.3523 30.9608C39.5504 31.0689 39.7142 31.2214 39.8277 31.4035C39.9412 31.5856 40.0006 31.7911 40 32Z" fill="#0B0C11"/>
</svg>
