<svg width="304" height="70" viewBox="0 0 304 70" fill="none" xmlns="http://www.w3.org/2000/svg">
<path d="M53.838 31.2717C53.6399 31.0069 53.4237 30.756 53.191 30.521L38.6865 16.0181C37.2525 14.584 35.5501 13.4464 33.6764 12.6703C31.8027 11.8941 29.7946 11.4947 27.7665 11.4947C25.7385 11.4947 23.7303 11.8941 21.8566 12.6703C19.983 13.4464 18.2805 14.584 16.8465 16.0181L2.34205 30.524C2.06288 30.8022 1.80774 31.1036 1.57937 31.4248C0.791716 29.5581 0.578697 27.4989 0.967555 25.5105C1.35641 23.5221 2.32947 21.6948 3.76232 20.2623L20.4752 3.55543C22.3849 1.64638 24.9747 0.573937 27.6749 0.573937C30.3752 0.573937 32.9649 1.64638 34.8746 3.55543L51.589 20.2699C53.0008 21.6815 53.9666 23.4769 54.3664 25.4329C54.7663 27.3889 54.5825 29.4192 53.838 31.2717ZM50.3039 51.3896L67.0183 34.6692C68.9274 32.7595 69.9998 30.1698 69.9998 27.4695C69.9998 24.7693 68.9274 22.1796 67.0183 20.2699L50.3039 3.55543C48.8716 2.12279 47.0445 1.14996 45.0563 0.761358C43.0681 0.37276 41.0092 0.586063 39.1429 1.37399C39.4645 1.60185 39.7659 1.85703 40.0437 2.13667L54.5542 16.6381C55.9883 18.0721 57.1258 19.7746 57.902 21.6482C58.6781 23.5219 59.0776 25.5301 59.0776 27.5581C59.0776 29.5862 58.6781 31.5943 57.902 33.468C57.1258 35.3417 55.9883 37.0441 54.5542 38.4781L40.0497 52.9811C39.8158 53.215 39.5649 53.4312 39.2991 53.6281C41.1514 54.3742 43.1822 54.5592 45.1389 54.1602C47.0955 53.7611 48.8917 52.7955 50.3039 51.3836V51.3896ZM18.4109 49.9003L35.1313 66.6072C36.0767 67.5529 37.1991 68.303 38.4345 68.8148C39.6698 69.3266 40.9939 69.59 42.331 69.59C43.6682 69.59 44.9922 69.3266 46.2276 68.8148C47.4629 68.303 48.5853 67.5529 49.5307 66.6072L66.2391 49.8943C67.6717 48.4617 68.6445 46.6343 69.0331 44.6459C69.4217 42.6575 69.2084 40.5984 68.4206 38.7318C68.1931 39.0538 67.9379 39.3552 67.6579 39.6326L53.1474 54.1431C51.7135 55.5771 50.0112 56.7147 48.1377 57.4908C46.2642 58.2669 44.2561 58.6664 42.2282 58.6664C40.2002 58.6664 38.1922 58.2669 36.3186 57.4908C34.4451 56.7147 32.7428 55.5771 31.3089 54.1431L16.815 39.6387C16.581 39.4048 16.3647 39.1538 16.1679 38.888C15.4213 40.7404 15.2359 42.7714 15.6347 44.7284C16.0335 46.6853 16.999 48.4818 18.4109 49.8943V49.9003ZM19.6961 18.7865L2.98163 35.4934C1.07248 37.4034 0 39.9934 0 42.6939C0 45.3944 1.07248 47.9844 2.98163 49.8943L19.6961 66.6072C21.1285 68.0401 22.9558 69.0131 24.9442 69.402C26.9326 69.7909 28.9918 69.5778 30.8585 68.7902C30.5373 68.5618 30.2359 68.3067 29.9577 68.0275L15.4548 53.523C14.0207 52.089 12.8831 50.3866 12.107 48.5129C11.3308 46.6393 10.9314 44.6311 10.9314 42.6031C10.9314 40.575 11.3308 38.5668 12.107 36.6931C12.8831 34.8195 14.0207 33.1171 15.4548 31.683L29.9577 17.1786C30.1928 16.9459 30.4436 16.7297 30.7084 16.5315C28.8546 15.7848 26.8221 15.5999 24.864 15.9998C22.9058 16.3997 21.1086 17.3667 19.6961 18.7805V18.7865Z" fill="white"/>
<path d="M89.024 49.5723V15.9723H95.984V29.5083H111.44V15.9723H118.4V49.5723H111.44V35.7963H95.984V49.5723H89.024ZM131.576 50.0043C129.784 50.0043 128.2 49.6843 126.824 49.0443C125.448 48.3723 124.376 47.4603 123.608 46.3083C122.84 45.1563 122.456 43.8283 122.456 42.3243C122.456 39.9243 123.352 38.0683 125.144 36.7563C126.968 35.4123 129.464 34.7403 132.632 34.7403C134.808 34.7403 136.856 35.0763 138.776 35.7483V33.9243C138.776 32.4843 138.328 31.3963 137.432 30.6603C136.536 29.9243 135.224 29.5563 133.496 29.5563C132.44 29.5563 131.304 29.7323 130.088 30.0843C128.872 30.4043 127.464 30.9163 125.864 31.6203L123.464 26.7723C125.448 25.8763 127.336 25.2043 129.128 24.7563C130.952 24.3083 132.776 24.0843 134.6 24.0843C137.96 24.0843 140.568 24.9003 142.424 26.5323C144.312 28.1323 145.256 30.4043 145.256 33.3483V49.5723H138.776V47.7963C137.752 48.5643 136.648 49.1243 135.464 49.4763C134.28 49.8283 132.984 50.0043 131.576 50.0043ZM128.696 42.1803C128.696 43.1403 129.112 43.9083 129.944 44.4843C130.776 45.0283 131.88 45.3003 133.256 45.3003C134.344 45.3003 135.352 45.1723 136.28 44.9163C137.208 44.6283 138.04 44.2123 138.776 43.6683V40.0203C137.976 39.7003 137.144 39.4603 136.28 39.3003C135.416 39.1403 134.488 39.0603 133.496 39.0603C131.992 39.0603 130.808 39.3483 129.944 39.9243C129.112 40.4683 128.696 41.2203 128.696 42.1803ZM150.233 49.5723V15.9723L156.809 14.8683V35.0763L167.609 24.5643H175.049L163.241 36.0363L175.769 49.5723H167.369L156.809 38.1483V49.5723H150.233ZM177.514 49.5723V15.9723L184.09 14.8683V35.0763L194.89 24.5643H202.33L190.522 36.0363L203.05 49.5723H194.65L184.09 38.1483V49.5723H177.514ZM212.06 50.0043C210.268 50.0043 208.684 49.6843 207.308 49.0443C205.932 48.3723 204.86 47.4603 204.092 46.3083C203.324 45.1563 202.94 43.8283 202.94 42.3243C202.94 39.9243 203.836 38.0683 205.628 36.7563C207.452 35.4123 209.948 34.7403 213.116 34.7403C215.292 34.7403 217.34 35.0763 219.26 35.7483V33.9243C219.26 32.4843 218.812 31.3963 217.916 30.6603C217.02 29.9243 215.708 29.5563 213.98 29.5563C212.924 29.5563 211.788 29.7323 210.572 30.0843C209.356 30.4043 207.948 30.9163 206.348 31.6203L203.948 26.7723C205.932 25.8763 207.82 25.2043 209.612 24.7563C211.436 24.3083 213.26 24.0843 215.084 24.0843C218.444 24.0843 221.052 24.9003 222.908 26.5323C224.796 28.1323 225.74 30.4043 225.74 33.3483V49.5723H219.26V47.7963C218.236 48.5643 217.132 49.1243 215.948 49.4763C214.764 49.8283 213.468 50.0043 212.06 50.0043ZM209.18 42.1803C209.18 43.1403 209.596 43.9083 210.428 44.4843C211.26 45.0283 212.364 45.3003 213.74 45.3003C214.828 45.3003 215.836 45.1723 216.764 44.9163C217.692 44.6283 218.524 44.2123 219.26 43.6683V40.0203C218.46 39.7003 217.628 39.4603 216.764 39.3003C215.9 39.1403 214.972 39.0603 213.98 39.0603C212.476 39.0603 211.292 39.3483 210.428 39.9243C209.596 40.4683 209.18 41.2203 209.18 42.1803ZM230.717 49.5723V24.5643H237.293V27.3483C238.093 26.2603 239.053 25.4283 240.173 24.8523C241.293 24.2763 242.557 23.9883 243.965 23.9883C245.181 24.0203 246.093 24.2123 246.701 24.5643V30.3243C246.221 30.1003 245.693 29.9403 245.117 29.8443C244.541 29.7163 243.949 29.6523 243.341 29.6523C242.061 29.6523 240.893 29.9723 239.837 30.6123C238.781 31.2523 237.933 32.1643 237.293 33.3483V49.5723H230.717ZM261.566 50.0523C259.07 50.0523 256.798 49.4763 254.75 48.3243C252.734 47.1723 251.134 45.6203 249.95 43.6683C248.766 41.7163 248.174 39.5243 248.174 37.0923C248.174 34.6603 248.734 32.4683 249.854 30.5163C251.006 28.5643 252.558 27.0123 254.51 25.8603C256.462 24.7083 258.638 24.1323 261.038 24.1323C263.438 24.1323 265.566 24.7243 267.422 25.9083C269.278 27.0923 270.734 28.6923 271.79 30.7083C272.878 32.7243 273.422 35.0123 273.422 37.5723V39.3003H254.894C255.182 40.2923 255.646 41.1883 256.286 41.9883C256.958 42.7883 257.774 43.4123 258.734 43.8603C259.726 44.3083 260.782 44.5323 261.902 44.5323C263.022 44.5323 264.046 44.3563 264.974 44.0043C265.934 43.6523 266.75 43.1563 267.422 42.5163L271.742 46.4523C270.206 47.7003 268.622 48.6123 266.99 49.1883C265.39 49.7643 263.582 50.0523 261.566 50.0523ZM254.798 34.5963H266.942C266.718 33.6043 266.302 32.7403 265.694 32.0043C265.118 31.2363 264.414 30.6443 263.582 30.2283C262.782 29.7803 261.886 29.5563 260.894 29.5563C259.87 29.5563 258.942 29.7643 258.11 30.1803C257.278 30.5963 256.574 31.1883 255.998 31.9563C255.454 32.6923 255.054 33.5723 254.798 34.5963ZM277.451 49.5723V24.5643H284.027V26.6283C285.915 24.9323 288.251 24.0843 291.035 24.0843C292.987 24.0843 294.699 24.5163 296.171 25.3803C297.675 26.2123 298.843 27.3803 299.675 28.8843C300.507 30.3563 300.923 32.0843 300.923 34.0683V49.5723H294.347V35.0283C294.347 33.3963 293.883 32.1163 292.955 31.1883C292.027 30.2283 290.763 29.7483 289.163 29.7483C288.043 29.7483 287.051 29.9723 286.187 30.4203C285.323 30.8363 284.603 31.4443 284.027 32.2443V49.5723H277.451Z" fill="white"/>
</svg>
