<svg width="100" height="26" viewBox="0 0 100 26" fill="none" xmlns="http://www.w3.org/2000/svg">
<path d="M32.289 9.83546C32.289 8.04157 30.5446 6.13633 27.5259 6.13633C24.1361 6.13633 20.4122 8.62304 19.8431 13.5841C19.2617 18.5946 22.3793 20.8215 25.5217 20.8215C28.6641 20.8215 30.3096 19.5967 31.9921 17.9636C30.5446 16.145 28.6765 16.9863 28.3177 17.1718C27.9218 17.3698 27.4146 17.642 26.3754 17.642C25.1629 17.642 23.9258 17.0976 23.9258 14.8336C31.6952 14.0666 32.289 11.6293 32.289 9.83546ZM28.4414 10.1324C28.3919 10.6891 28.1693 11.6417 24.2351 12.1737C25.064 9.22925 26.6475 9.00656 27.3775 9.00656C28.0579 9.00656 28.4909 9.53854 28.4414 10.1324ZM15.278 10.6149C15.278 10.6149 13.6078 15.8604 13.4717 16.2935C13.4223 15.8481 12.1975 6.43325 12.1975 6.43325C9.35199 6.43325 7.83027 8.4622 7.02612 10.6025C7.02612 10.6025 4.99717 15.8604 4.82396 16.3058C4.81159 15.8976 4.51467 10.6644 4.51467 10.6644C4.34147 8.04157 1.94137 6.44563 -0.000976562 6.44563L2.34964 20.7101C5.3312 20.6978 6.93952 18.6812 7.78079 16.5409C7.78079 16.5409 9.57468 11.9015 9.64891 11.6912C9.66128 11.8891 10.9356 20.7101 10.9356 20.7101C13.9295 20.7101 15.5378 18.8173 16.4038 16.7512L20.5978 6.44563C17.641 6.44563 16.0822 8.4622 15.278 10.6149ZM43.275 6.11159C41.4317 6.11159 40.0213 7.1137 38.8336 8.58592V8.57355L39.8976 0C37.448 0 35.4562 2.12792 35.0726 5.29506L33.2169 20.5988C34.6273 20.5988 36.1242 20.1905 36.9284 19.1513C37.6459 20.0792 38.7223 20.8215 40.3182 20.8215C44.4503 20.8215 47.2835 16.0213 47.2835 11.518C47.2587 7.41061 45.2669 6.11159 43.275 6.11159ZM42.8915 13.4727C42.4585 15.9842 41.0605 17.6915 39.712 17.6915C38.3511 17.6915 37.7697 17.0852 37.7697 17.0852C38.0295 14.8831 38.1903 13.5346 38.6852 12.3716C39.18 11.2087 40.3553 9.35296 41.5801 9.35296C42.7802 9.35296 43.3245 10.9489 42.8915 13.4727ZM57.6014 6.44563H54.7188L54.7312 6.29717C54.9291 4.41668 55.3745 3.42695 56.8467 3.26611C57.8488 3.16714 58.2942 2.64753 58.4056 2.07844C58.4922 1.63306 58.7643 0.0866015 58.7643 0.0866015C52.9744 0.0494866 51.1558 2.54856 50.6857 6.35903L50.6733 6.44563H50.6114C49.6712 6.44563 48.632 7.50959 48.4588 8.8581L48.3969 9.35296H50.3269L48.7062 22.7391L48.2113 25.1392C48.2732 25.1392 48.3474 25.1516 48.4093 25.1516C51.1187 25.0526 52.8507 22.9123 53.2342 19.807L54.4961 9.35296H55.3992C56.29 9.35296 57.3292 8.4622 57.5148 6.97761L57.6014 6.44563ZM72.5958 6.19819C69.2679 6.19819 66.1255 8.64778 65.1605 12.4954C64.1955 16.3429 65.6553 20.8957 70.5545 20.8957C75.4413 20.8957 78.262 16.1574 78.262 12.2108C78.262 8.289 75.6021 6.19819 72.5958 6.19819ZM73.9443 13.349C73.7711 15.0934 73.0041 17.7409 70.9009 17.7409C68.7854 17.7409 69.0823 14.648 69.2926 13.1758C69.5153 11.6046 70.3937 9.36533 72.2865 9.36533C73.9815 9.36533 74.1423 11.3819 73.9443 13.349ZM94.704 10.6149C94.704 10.6149 93.0338 15.8604 92.8977 16.2935C92.8482 15.8481 91.6234 6.43325 91.6234 6.43325C88.7779 6.43325 87.2562 8.4622 86.4521 10.6025C86.4521 10.6025 84.4231 15.8604 84.2499 16.3058C84.2375 15.8976 83.9406 10.6644 83.9406 10.6644C83.7674 8.04157 81.3673 6.44563 79.425 6.44563L81.7632 20.7101C84.7448 20.6978 86.3531 18.6812 87.1944 16.5409C87.1944 16.5409 88.9883 11.9015 89.0501 11.6912C89.0749 11.8891 90.3368 20.7101 90.3368 20.7101C93.3307 20.7101 94.939 18.8173 95.805 16.7512L99.999 6.44563C97.0546 6.44563 95.4957 8.4622 94.704 10.6149ZM60.3232 0.0866015L57.8983 19.6462L57.4035 22.0586C57.4653 22.0586 57.5395 22.071 57.6014 22.071C60.2118 22.0339 62.0676 19.7451 62.414 16.8626L63.812 5.64147C64.2326 2.21452 62.1913 0.0866015 60.3232 0.0866015Z" fill="white"/>
</svg>
