<svg width="34" height="33" viewBox="0 0 34 33" fill="none" xmlns="http://www.w3.org/2000/svg">
<g clip-path="url(#clip0_4_9182)">
<path d="M14.9088 3.30839C13.2969 4.27408 11.8483 5.14073 10.3976 6.01151C9.88553 6.31896 9.22038 6.67182 9.75495 7.34037C9.95898 7.58386 10.7751 7.56529 11.1607 7.35688C13.7621 5.91247 16.3003 4.33599 18.8935 2.86475C19.8058 2.32402 20.8735 2.11514 21.9194 2.27279C22.9653 2.43043 23.9264 2.94512 24.6431 3.7314C25.3525 4.47319 25.7925 5.43612 25.8914 6.46322C25.9903 7.49031 25.7423 8.52101 25.1879 9.38732C24.7571 10.0292 24.1966 10.5715 23.5434 10.9782C21.246 12.3896 18.8976 13.7061 16.5982 15.0866C16.0901 15.392 15.7188 15.4291 15.2087 15.0866C14.2355 14.4531 13.2112 13.9001 12.0483 13.2295C13.7846 12.1977 15.3556 11.2754 16.9328 10.3406C18.3916 9.48224 19.881 8.67336 21.299 7.74687C21.6173 7.54053 21.9376 6.84308 21.8213 6.54388C21.5826 5.92485 21.0052 6.13119 20.5217 6.41801C18.2712 7.75719 15.9391 8.96018 13.7723 10.417C10.1181 12.8807 6.68836 11.3125 5.5519 7.01022C5.30023 6.1192 5.18667 5.19411 5.21525 4.26789C5.38256 1.26557 8.19003 -0.368681 10.8547 0.966372C12.1972 1.6535 13.4704 2.47476 14.9088 3.30839Z" fill="white"/>
<path d="M15.1348 21.5472C12.1294 19.7891 9.31177 18.1239 6.47574 16.5061C5.90241 16.1781 5.16382 15.297 4.59253 16.24C3.96411 17.2717 5.14137 17.5049 5.72898 17.8598C7.99373 19.2361 10.3013 20.5423 12.5803 21.8959C15.1715 23.4352 15.9611 26.1239 14.3044 28.6269C13.4306 29.9445 12.2892 31.0587 10.9563 31.8954C8.48136 33.4099 5.62901 31.9366 5.27195 29.0437C5.06792 27.4486 5.23523 25.8082 5.23523 23.9944C6.73078 24.8487 8.09166 25.6287 9.45459 26.4025C9.74228 26.5655 10.03 26.8151 10.3299 26.8399C10.6298 26.8647 11.1256 26.7347 11.2419 26.5139C11.3582 26.2931 11.2419 25.769 11.0379 25.5585C10.7155 25.2242 10.2442 25.0385 9.83205 24.7971C7.58771 23.4744 5.31072 22.1724 3.06638 20.8311C0.581277 19.3496 -0.196082 16.5949 1.16277 14.2446C2.52161 11.8943 5.26787 11.2732 7.76317 12.728C9.95855 14.0073 12.1396 15.3114 14.3513 16.5577C14.943 16.892 15.1838 17.2779 15.1491 17.9629C15.0961 19.071 15.1348 20.1894 15.1348 21.5472Z" fill="white"/>
<path d="M27.536 22.1792C27.536 20.1157 27.536 18.4278 27.536 16.7296C27.536 16.1642 27.5543 15.4915 26.7872 15.4915C25.971 15.4915 25.971 16.191 25.971 16.7998C25.971 19.6624 25.9792 22.5245 25.9955 25.3858C25.9955 28.3819 24.0776 30.5093 21.362 30.5011C18.6463 30.4928 16.6978 28.4025 16.6897 25.4105C16.6897 22.8828 16.7142 20.3551 16.657 17.8274C16.6407 17.0845 16.8815 16.6842 17.516 16.3582C18.4892 15.8568 19.4176 15.2645 20.4969 14.6331C20.5316 15.085 20.5744 15.3945 20.5744 15.702C20.5826 18.899 20.5867 22.0959 20.5867 25.2929C20.5867 25.8769 20.5867 26.531 21.3212 26.5537C22.123 26.5764 22.1557 25.8975 22.1536 25.2682C22.1536 22.3793 22.1291 19.4678 22.1536 16.5686C22.1781 13.6695 23.9389 11.8227 26.8035 11.734C28.5822 11.6522 30.3374 12.1697 31.7941 13.2052C33.8344 14.6703 34.1425 17.5385 32.247 19.1624C30.9208 20.2808 29.311 21.0587 27.536 22.1792Z" fill="white"/>
</g>
<defs>
<clipPath id="clip0_4_9182">
<rect width="33" height="32" fill="white" transform="translate(0.5 0.5)"/>
</clipPath>
</defs>
</svg>
