<svg width="34" height="33" viewBox="0 0 34 33" fill="none" xmlns="http://www.w3.org/2000/svg">
<path fill-rule="evenodd" clip-rule="evenodd" d="M32.6464 14.1985C32.6464 21.1723 27.0288 26.6951 20.1506 26.6951C17.1474 26.6951 14.4355 25.727 12.3046 23.9835C14.1413 25.0046 16.2088 25.5385 18.3102 25.5343C25.1878 25.5343 30.8054 19.9168 30.8054 12.942C30.8054 8.96904 28.9657 5.48408 26.0601 3.15813C29.9345 5.28764 32.6464 9.4536 32.6464 14.2006V14.1985ZM22.8625 1.79992C28.7713 5.19079 30.8054 12.8427 27.4159 18.8491C25.865 21.4638 23.6366 23.2091 21.0218 24.2726C22.766 23.208 24.219 21.7568 25.3801 19.8178C28.7713 13.9091 26.7369 6.25641 20.7327 2.77007C17.3425 0.736714 13.3699 0.639527 9.98004 1.89814C13.7573 -0.329245 18.6969 -0.620807 22.8625 1.80061V1.79992ZM26.7369 28.9228C20.8285 32.3133 13.1765 30.2789 9.68951 24.273C8.13865 21.755 7.75197 18.9466 8.13865 16.1395C8.13865 18.1729 8.72108 20.2062 9.78739 22.1455C13.2727 28.0495 20.9253 30.181 26.9313 26.6951C30.3208 24.661 32.4517 21.367 33.1289 17.7828C33.1289 22.1428 30.9022 26.5021 26.7369 28.9224V28.9228ZM11.0457 31.247C5.13618 27.7607 3.0046 20.1077 6.49336 14.1034C8.04422 11.5841 10.2695 9.74344 12.7899 8.77639C11.1425 9.84062 9.59198 11.2922 8.52671 13.1343C7.69714 14.5582 7.15679 16.1319 6.93663 17.765C6.71648 19.3982 6.82085 21.0587 7.24377 22.6515C7.66669 24.2442 8.39984 25.7378 9.40117 27.0467C10.4025 28.3555 11.6523 29.4538 13.079 30.2786C16.4706 32.2161 20.5387 32.4105 23.9271 31.0533C20.1503 33.3782 15.2095 33.5726 11.0453 31.2474L11.0457 31.247ZM1.26143 18.8491C1.26143 11.8743 6.879 6.35394 13.7566 6.35394C16.7601 6.35394 19.4734 7.32271 21.6043 9.06623C19.768 8.04452 17.7004 7.51057 15.599 7.51536C8.72074 7.51536 3.10214 13.1329 3.10214 20.1063C3.10386 23.9814 4.94215 27.5649 7.8495 29.7926C3.9751 27.6638 1.26143 23.5954 1.26143 18.8491ZM7.07441 4.12483C8.49845 3.29567 10.0721 2.75564 11.7052 2.5357C13.3383 2.31576 14.9988 2.42023 16.5914 2.84312C18.1841 3.266 19.6776 3.999 20.9865 5.00011C22.2954 6.00122 23.3939 7.25076 24.219 8.67713C25.6734 11.2936 26.1566 14.1034 25.7682 16.8157C25.6734 14.8771 25.1878 12.7456 24.025 10.9056C20.6345 4.89923 12.885 2.86519 6.97722 6.35394C3.58773 8.29045 1.45684 11.6827 0.874063 15.2669C0.778254 10.9055 3.0046 6.45147 7.07441 4.12552V4.12483Z" fill="white"/>
</svg>
