<svg width="46" height="33" viewBox="0 0 46 33" fill="none" xmlns="http://www.w3.org/2000/svg">
<g clip-path="url(#clip0_4_9197)">
<path d="M28.7664 1.83565C25.5961 0.0892869 21.2233 -0.0390943 17.5625 2.01029C14.4063 3.78214 12.6936 7.79123 13.3794 11.9344C15.4976 12.5158 17.5335 13.8223 18.4511 15.8387C19.3686 17.855 18.8295 20.5973 16.9243 21.6989C17.7914 21.1976 18.0035 19.691 17.8438 18.714C17.6808 17.7758 17.2775 16.8971 16.6739 16.1653C15.179 14.4302 13.058 13.2389 10.7875 12.9557C7.57891 12.5612 4.20868 14.0168 2.27456 16.6373C0.340445 19.2578 -0.0790815 22.9317 1.20753 25.9279C1.81112 27.3335 2.77818 28.5975 4.04891 29.4348C6.76321 31.2284 10.7613 31.2945 13.5588 29.6406C16.3563 27.9867 18.0792 25.9072 20.1236 22.4116C21.7727 19.5938 23.4826 16.5589 25.8568 14.3349C28.231 12.1109 31.447 10.5288 34.6556 10.9866C33.8381 7.25693 31.9367 3.58202 28.7664 1.83565Z" fill="white"/>
<path d="M32.6215 31.404C34.0604 32.3914 35.9011 32.6632 37.6231 32.4121C41.3605 31.8675 44.5971 28.7835 45.3586 25.0491C46.1201 21.3147 44.3476 17.1886 41.1288 15.1977C37.9099 13.2069 33.4671 13.4901 30.522 15.8727C29.3792 16.7968 28.472 17.9787 27.5909 19.1605C25.4802 21.9925 23.4377 24.8981 20.8981 27.3411C18.3585 29.7841 15.2443 31.7617 11.7778 32.2941C16.3571 32.7491 20.9468 31.5384 24.7215 28.8798C25.9361 28.0208 27.0424 27.0201 28.2795 26.2008C29.5166 25.3814 30.9228 24.7348 32.4019 24.7027C33.881 24.6706 35.4367 25.354 36.1533 26.6614C36.87 27.9688 36.4729 29.8776 35.1489 30.544C36.0571 29.9653 36.2057 28.5701 35.6254 27.6573C34.7733 26.315 31.888 25.5041 30.7415 26.9238C29.6147 28.3238 31.5236 30.6516 32.6215 31.404Z" fill="white"/>
</g>
<defs>
<clipPath id="clip0_4_9197">
<rect width="45.0612" height="32" fill="white" transform="translate(0.469238 0.5)"/>
</clipPath>
</defs>
</svg>
